<?xml version="1.0" encoding="utf-8"?>
<!-- Generator: Adobe Illustrator 17.1.0, SVG Export Plug-In . SVG Version: 6.00 Build 0)  -->
<!DOCTYPE svg PUBLIC "-//W3C//DTD SVG 1.1//EN" "http://www.w3.org/Graphics/SVG/1.1/DTD/svg11.dtd">
<svg version="1.1" id="Layer_1" xmlns="http://www.w3.org/2000/svg" xmlns:xlink="http://www.w3.org/1999/xlink" x="0px" y="0px"
	 viewBox="0 346 612 102" enable-background="new 0 346 612 102" xml:space="preserve">
<g>
	<g>
		<rect x="8.5" y="389.9" fill="#A62929" width="238.9" height="4.6"/>
	</g>
	<path fill="#A62929" d="M290.6,351.1c4.7,3.1,8.3,7.1,10.9,12.2c4.7,9.4,5,19.3,2.7,29.2c-1.4,6.4-3.8,12.5-5.7,18.8
		c-1.9,6.3-3.6,12.6-2.3,19.3c0.1,0.6,0.3,1.2,0.6,2.4c0.3-0.8,0.5-1.1,0.5-1.4c0.9-10,6.1-17.3,14.1-22.7c4.9-3.3,9.9-6.4,14.9-9.6
		c6-3.8,11.7-7.9,15.8-13.9c0.2,0,0.4,0.1,0.6,0.1c-0.3,3-0.4,6.1-0.8,9.1c-1.4,10.3-5.5,19.6-11.5,27.9c-1.4,1.9-4.1,3-6.4,4
		c-5.3,2.4-10.7,4.5-16,7c-3.3,1.5-6.3,3.4-8.4,6.5c-0.8,1.1-4,1.3-5,0.2c-4.4-5.1-10-9.3-12.9-15.6c-3.8-8.3-6.2-17-6.4-26.1
		c-0.1-6.2,2-12,4.5-17.7c2.7-6,5.5-11.9,7.8-18C289,359.1,289.6,355.1,290.6,351.1z"/>
	<g>
		<rect x="360.2" y="389.9" fill="#A62929" width="243.3" height="4.6"/>
	</g>
</g>
</svg>
