<?xml version="1.0" encoding="utf-8"?>
<!-- Generator: Adobe Illustrator 17.1.0, SVG Export Plug-In . SVG Version: 6.00 Build 0)  -->
<!DOCTYPE svg PUBLIC "-//W3C//DTD SVG 1.1//EN" "http://www.w3.org/Graphics/SVG/1.1/DTD/svg11.dtd">
<svg version="1.1" id="Layer_1" xmlns="http://www.w3.org/2000/svg" xmlns:xlink="http://www.w3.org/1999/xlink" x="0px" y="0px"
	 viewBox="0 0 27.86 28.122" enable-background="new 0 0 27.86 28.122" xml:space="preserve">
<g>
	<path fill="#FFFFFF" d="M18.586,18.106c0,0.039,0.003,0.076,0.003,0.114c0,3.901-3.174,7.074-7.074,7.074
		c-3.901,0-7.074-3.173-7.074-7.074c0-2.357,1.16-4.448,2.938-5.734l-0.24-2.114c-2.75,1.539-4.613,4.479-4.613,7.848
		c0,4.957,4.032,8.989,8.989,8.989c4.202,0,7.738-2.898,8.718-6.8L18.586,18.106z"/>
	<path fill="#FFFFFF" d="M10.361,0.913c1.263,0,2.287,1.024,2.287,2.287s-1.024,2.287-2.287,2.287c-1.263,0-2.287-1.024-2.287-2.287
		S9.098,0.913,10.361,0.913"/>
	<path fill="#FFFFFF" d="M25.106,20.924l-5.132-7.176c-0.269-0.376-0.717-0.554-1.172-0.515c-0.034-0.003-0.068-0.006-0.103-0.006
		h-5.862l-0.146-1.276h4.358c0.507,0,0.918-0.411,0.918-0.918s-0.411-0.917-0.918-0.917h-4.567L12.244,8.02
		c-0.139-1.226-1.246-2.107-2.472-1.967S7.665,7.299,7.805,8.525l0.674,5.919c0.13,1.145,1.103,1.987,2.229,1.981
		c0.004,0,0.007,0.001,0.011,0.001h7.671l4.402,6.154c0.42,0.588,1.279,0.694,1.918,0.237
		C25.349,22.359,25.527,21.512,25.106,20.924"/>
</g>
<g>
	<g>
		<g>
			<polygon fill="#FFFFFF" points="-26.741,22.218 -27.794,22.218 -27.794,22.635 -26.827,22.635 -26.827,22.987 -27.794,22.987 
				-27.794,23.499 -26.694,23.499 -26.694,23.851 -28.2,23.851 -28.2,21.867 -26.741,21.867 			"/>
			<path fill="#FFFFFF" d="M-24.473,23.77l-0.216-0.203c0.121-0.155,0.207-0.382,0.207-0.708c0-0.93-0.69-1.043-0.953-1.043
				c-0.262,0-0.953,0.113-0.953,1.043c0,0.932,0.691,1.044,0.953,1.044c0.116,0,0.321-0.021,0.508-0.133l0.236,0.224L-24.473,23.77z
				 M-25.41,23.312l0.199,0.187c-0.075,0.04-0.155,0.053-0.224,0.053c-0.224,0-0.539-0.137-0.539-0.693
				c0-0.555,0.315-0.693,0.539-0.693s0.539,0.138,0.539,0.693c0,0.186-0.036,0.324-0.091,0.426l-0.21-0.196L-25.41,23.312z"/>
			<path fill="#FFFFFF" d="M-22.531,23.158c0,0.521-0.315,0.745-0.815,0.745c-0.183,0-0.453-0.044-0.63-0.24
				c-0.108-0.12-0.149-0.282-0.155-0.48v-1.315h0.423v1.286c0,0.278,0.16,0.398,0.353,0.398c0.285,0,0.401-0.137,0.401-0.378v-1.306
				h0.423V23.158z"/>
			<path fill="#FFFFFF" d="M-21.786,23.441h0.732l0.127,0.41h0.451l-0.699-1.984h-0.478l-0.707,1.984h0.436L-21.786,23.441z
				 M-21.421,22.315h0.006l0.246,0.785h-0.507L-21.421,22.315z"/>
			<polygon fill="#FFFFFF" points="-19.739,23.492 -18.753,23.492 -18.753,23.851 -20.154,23.851 -20.154,21.868 -19.739,21.868 			
				"/>
			<polygon fill="#FFFFFF" points="-17.182,22.961 -17.182,23.851 -17.596,23.851 -17.596,21.867 -17.182,21.867 -17.182,22.619 
				-16.408,22.619 -16.408,21.867 -15.994,21.867 -15.994,23.851 -16.408,23.851 -16.408,22.961 			"/>
			<path fill="#FFFFFF" d="M-15.618,22.859c0,0.931,0.691,1.044,0.952,1.044c0.264,0,0.954-0.113,0.954-1.044
				c0-0.931-0.69-1.044-0.954-1.044C-14.928,21.815-15.618,21.928-15.618,22.859 M-15.204,22.859c0-0.555,0.316-0.693,0.538-0.693
				c0.225,0,0.54,0.138,0.54,0.693c0,0.555-0.315,0.693-0.54,0.693C-14.889,23.552-15.204,23.414-15.204,22.859"/>
			<path fill="#FFFFFF" d="M-11.734,23.158c0,0.521-0.315,0.745-0.816,0.745c-0.182,0-0.452-0.044-0.629-0.24
				c-0.108-0.12-0.15-0.282-0.155-0.48v-1.315h0.423v1.286c0,0.278,0.16,0.398,0.354,0.398c0.284,0,0.4-0.137,0.4-0.378v-1.306
				h0.423V23.158z"/>
			<path fill="#FFFFFF" d="M-10.976,23.24c0.004,0.11,0.059,0.321,0.421,0.321c0.195,0,0.414-0.047,0.414-0.258
				c0-0.154-0.149-0.196-0.359-0.245l-0.212-0.05c-0.322-0.075-0.631-0.146-0.631-0.582c0-0.221,0.119-0.611,0.763-0.611
				c0.608,0,0.771,0.397,0.774,0.641h-0.399c-0.011-0.088-0.044-0.299-0.406-0.299c-0.157,0-0.345,0.058-0.345,0.238
				c0,0.155,0.128,0.187,0.21,0.207l0.484,0.118c0.27,0.067,0.518,0.178,0.518,0.534c0,0.597-0.607,0.649-0.781,0.649
				c-0.723,0-0.848-0.417-0.848-0.663H-10.976z"/>
			<rect x="-9.403" y="21.868" fill="#FFFFFF" width="0.413" height="1.984"/>
			<polygon fill="#FFFFFF" points="-7.334,21.867 -6.948,21.867 -6.948,23.851 -7.362,23.851 -8.171,22.436 -8.177,22.436 
				-8.177,23.851 -8.564,23.851 -8.564,21.867 -8.127,21.867 -7.341,23.248 -7.334,23.248 			"/>
			<path fill="#FFFFFF" d="M-5.561,22.782h0.828v1.069h-0.276l-0.041-0.248c-0.105,0.12-0.257,0.3-0.619,0.3
				c-0.478,0-0.911-0.342-0.911-1.038c0-0.541,0.301-1.053,0.969-1.05c0.609,0,0.849,0.395,0.87,0.669h-0.414
				c0-0.078-0.141-0.326-0.433-0.326c-0.297,0-0.57,0.204-0.57,0.712c0,0.542,0.296,0.682,0.577,0.682
				c0.092,0,0.396-0.035,0.481-0.436h-0.461V22.782z"/>
		</g>
		<g>
			<path fill="#FFFFFF" d="M-28.288,25.873c0,0.931,0.69,1.045,0.952,1.045c0.263,0,0.953-0.114,0.953-1.045
				c0-0.931-0.69-1.044-0.953-1.044C-27.598,24.829-28.288,24.942-28.288,25.873 M-27.874,25.873c0-0.555,0.315-0.694,0.538-0.694
				c0.224,0,0.539,0.139,0.539,0.694c0,0.555-0.315,0.694-0.539,0.694C-27.559,26.567-27.874,26.428-27.874,25.873"/>
			<path fill="#FFFFFF" d="M-25.247,26.149h0.475c0.533,0,0.632-0.453,0.632-0.633c0-0.389-0.231-0.635-0.616-0.635h-0.905v1.984
				h0.414V26.149z M-25.247,25.806v-0.583h0.329c0.257,0,0.364,0.081,0.364,0.274c0,0.088,0,0.309-0.309,0.309H-25.247z"/>
			<path fill="#FFFFFF" d="M-23.015,26.149h0.475c0.533,0,0.633-0.453,0.633-0.633c0-0.389-0.232-0.635-0.616-0.635h-0.907v1.984
				h0.415V26.149z M-23.015,25.806v-0.583h0.328c0.257,0,0.365,0.081,0.365,0.274c0,0.088,0,0.309-0.309,0.309H-23.015z"/>
			<path fill="#FFFFFF" d="M-21.285,25.873c0,0.931,0.69,1.045,0.953,1.045c0.262,0,0.952-0.114,0.952-1.045
				c0-0.931-0.69-1.044-0.952-1.044C-20.595,24.829-21.285,24.942-21.285,25.873 M-20.871,25.873c0-0.555,0.314-0.694,0.539-0.694
				c0.223,0,0.538,0.139,0.538,0.694c0,0.555-0.315,0.694-0.538,0.694C-20.557,26.567-20.871,26.428-20.871,25.873"/>
			<path fill="#FFFFFF" d="M-18.66,26.865h0.407v-0.777h0.427c0.307,0,0.324,0.105,0.324,0.376c0,0.204,0.016,0.306,0.043,0.401H-17
				v-0.054c-0.088-0.032-0.088-0.105-0.088-0.393c0-0.372-0.088-0.432-0.251-0.504c0.196-0.066,0.306-0.254,0.306-0.472
				c0-0.172-0.096-0.561-0.624-0.561h-1.003V26.865z M-18.253,25.754v-0.531h0.516c0.243,0,0.289,0.155,0.289,0.26
				c0,0.197-0.104,0.271-0.32,0.271H-18.253z"/>
			<polygon fill="#FFFFFF" points="-15.489,26.865 -15.903,26.865 -15.903,25.232 -16.502,25.232 -16.502,24.881 -14.889,24.881 
				-14.889,25.232 -15.489,25.232 			"/>
			<path fill="#FFFFFF" d="M-12.666,26.17c0,0.522-0.315,0.747-0.815,0.747c-0.182,0-0.452-0.046-0.63-0.242
				c-0.107-0.12-0.149-0.281-0.154-0.48v-1.314h0.422v1.286c0,0.277,0.161,0.399,0.354,0.399c0.284,0,0.4-0.139,0.4-0.379v-1.306
				h0.423V26.17z"/>
			<polygon fill="#FFFFFF" points="-10.661,24.881 -10.273,24.881 -10.273,26.865 -10.689,26.865 -11.498,25.45 -11.502,25.45 
				-11.502,26.865 -11.89,26.865 -11.89,24.881 -11.454,24.881 -10.666,26.262 -10.661,26.262 			"/>
			<rect x="-9.52" y="24.881" fill="#FFFFFF" width="0.416" height="1.984"/>
			<polygon fill="#FFFFFF" points="-7.487,26.865 -7.901,26.865 -7.901,25.232 -8.5,25.232 -8.5,24.881 -6.887,24.881 
				-6.887,25.232 -7.487,25.232 			"/>
			<polygon fill="#FFFFFF" points="-5.321,26.865 -5.736,26.865 -5.736,26.116 -6.421,24.881 -5.932,24.881 -5.52,25.744 
				-5.127,24.881 -4.658,24.881 -5.321,26.121 			"/>
		</g>
	</g>
	<g>
		<path fill="#FFFFFF" d="M-7.605,17.349h-17.84v-8.47l8.97-4.584l8.87,4.584V17.349z M-16.475,1.205L-29.83,7.782v3.09h1.495v9.268
			h23.619v-9.268h1.795v-3.09L-16.475,1.205z"/>
		<rect x="-21.505" y="8.879" fill="#FFFFFF" width="10.194" height="2.989"/>
		<rect x="-21.505" y="13.164" fill="#FFFFFF" width="10.194" height="2.991"/>
	</g>
</g>
</svg>
