<?xml version="1.0" encoding="utf-8"?>
<!-- Generator: Adobe Illustrator 17.1.0, SVG Export Plug-In . SVG Version: 6.00 Build 0)  -->
<!DOCTYPE svg PUBLIC "-//W3C//DTD SVG 1.1//EN" "http://www.w3.org/Graphics/SVG/1.1/DTD/svg11.dtd">
<svg version="1.1" id="Layer_1" xmlns="http://www.w3.org/2000/svg" xmlns:xlink="http://www.w3.org/1999/xlink" x="0px" y="0px"
	 viewBox="0 0 244 137" enable-background="new 0 0 244 137" xml:space="preserve">
<g>
	<ellipse fill="#EBE5CF" cx="121.996" cy="42.982" rx="35.556" ry="35.375"/>
	<g>
		<path fill="#231F20" d="M30.427,90.269h-0.266c-0.122-1.596-0.587-2.628-1.395-3.1c-0.809-0.471-1.806-0.705-2.991-0.705h-4.868
			v20.555c0,1.738,0.886,2.636,2.658,2.691v0.266h-7.793v-0.266c0.731-0.022,1.349-0.235,1.853-0.641
			c0.504-0.404,0.756-1.088,0.756-2.051V86.464h-4.868c-1.186,0-2.18,0.234-2.983,0.705c-0.804,0.472-1.271,1.504-1.404,3.1H8.86
			v-5.982h0.266c0.177,0.277,0.332,0.482,0.465,0.615s0.305,0.246,0.516,0.341c0.21,0.095,0.457,0.161,0.739,0.199
			c0.282,0.039,0.617,0.058,1.005,0.058h15.852c1.052,0,1.872-0.404,2.459-1.213h0.266V90.269z"/>
		<path fill="#231F20" d="M57.794,97.763c0,2.293-0.567,4.426-1.703,6.396c-1.136,1.973-2.684,3.543-4.644,4.711
			c-1.961,1.169-4.133,1.754-6.514,1.754c-2.394,0-4.587-0.585-6.58-1.754c-1.994-1.168-3.564-2.744-4.711-4.727
			c-1.146-1.982-1.72-4.143-1.72-6.48c0-1.795,0.34-3.481,1.021-5.061c0.682-1.578,1.634-2.954,2.858-4.129
			c1.224-1.174,2.619-2.082,4.187-2.725c1.567-0.643,3.204-0.964,4.91-0.964c1.672,0,3.278,0.308,4.818,0.923
			c1.539,0.614,2.922,1.503,4.145,2.666c1.225,1.164,2.186,2.543,2.883,4.138C57.446,94.107,57.794,95.858,57.794,97.763z
			 M54.871,97.829c0-3.257-0.576-5.805-1.729-7.644c-1.152-1.839-2.481-3.071-3.988-3.697c-1.506-0.626-2.924-0.938-4.253-0.938
			c-1.03,0-2.1,0.168-3.207,0.506c-1.108,0.338-2.186,0.956-3.232,1.854c-1.047,0.896-1.908,2.16-2.584,3.788
			c-0.676,1.628-1.014,3.64-1.014,6.032c0,2.104,0.28,3.941,0.84,5.508c0.559,1.568,1.329,2.848,2.309,3.839
			c0.98,0.991,2.061,1.706,3.24,2.144c1.18,0.438,2.406,0.656,3.681,0.656c1.141,0,2.295-0.202,3.464-0.606
			c1.169-0.404,2.237-1.063,3.207-1.978c0.97-0.914,1.756-2.154,2.359-3.723C54.568,102.003,54.871,100.089,54.871,97.829z"/>
		<path fill="#231F20" d="M92.524,85.499v0.283c-0.499,0.1-0.942,0.285-1.33,0.557c-0.388,0.271-0.77,0.721-1.146,1.346
			c-0.376,0.626-0.77,1.531-1.18,2.717l-6.862,20.223h-0.249l-6.248-20.223h-0.083l-6.796,20.223h-0.25l-6.962-22.3
			c-0.255-0.786-0.56-1.356-0.914-1.712c-0.354-0.354-0.679-0.572-0.972-0.656c-0.294-0.082-0.656-0.141-1.089-0.174v-0.283h7.594
			v0.283c-0.664,0.045-1.166,0.244-1.504,0.598c-0.338,0.355-0.507,0.793-0.507,1.312c0,0.399,0.095,0.898,0.283,1.496l5.167,16.533
			h0.066l5.551-16.533l-0.233-0.748c-0.222-0.72-0.554-1.332-0.997-1.836c-0.442-0.504-1.135-0.777-2.076-0.822v-0.283h7.826v0.283
			c-0.887,0.012-1.46,0.238-1.72,0.682c-0.261,0.443-0.391,0.853-0.391,1.229c0,0.477,0.083,0.976,0.249,1.496l5.102,16.533h0.066
			l5.201-15.32c0.154-0.41,0.296-0.892,0.423-1.445c0.128-0.555,0.191-1.025,0.191-1.412c0-0.754-0.163-1.225-0.49-1.413
			c-0.327-0.188-0.855-0.304-1.587-0.349v-0.283H92.524z"/>
		<path fill="#231F20" d="M119.424,85.499v0.283c-0.62,0.078-1.11,0.197-1.47,0.357c-0.36,0.16-0.641,0.477-0.84,0.947
			c-0.199,0.471-0.299,1.148-0.299,2.035v21.469h-0.166L97.857,89.62v15.055c0,1.252,0.05,2.183,0.149,2.791
			c0.1,0.609,0.243,1.047,0.432,1.313c0.41,0.576,1.124,0.886,2.144,0.931v0.266H94.45v-0.266c0.688-0.033,1.222-0.18,1.604-0.44
			c0.383-0.261,0.654-0.737,0.814-1.429c0.16-0.692,0.241-1.736,0.241-3.133V88.739l-0.814-0.914
			c-0.72-0.818-1.296-1.337-1.728-1.553c-0.433-0.217-0.97-0.379-1.612-0.49v-0.283h4.603l18.511,20.738V90.435
			c0-1.186-0.047-2.071-0.141-2.658c-0.095-0.588-0.344-1.059-0.748-1.412c-0.404-0.355-1.038-0.549-1.902-0.582v-0.283H119.424z"/>
		<path fill="#231F20" d="M121.718,85.782v-0.283h14.589v3.855h-0.232c0-2.061-1.373-3.09-4.121-3.09h-5.101V97.38h4.486
			c0.886,0,1.678-0.144,2.376-0.432c0.698-0.288,1.097-0.947,1.196-1.978h0.249v5.55h-0.249c-0.1-0.631-0.288-1.115-0.565-1.453
			c-0.277-0.338-0.552-0.562-0.823-0.674c-0.271-0.11-0.512-0.166-0.723-0.166c-0.398-0.066-0.814-0.1-1.246-0.1h-4.702v8.69
			c0,0.653,0.124,1.219,0.374,1.694c0.249,0.477,0.827,0.715,1.736,0.715h3.639c0.875,0,1.596-0.127,2.16-0.382
			c0.565-0.255,1.011-0.609,1.338-1.063c0.326-0.454,0.6-1.002,0.822-1.645h0.232l-0.848,3.838h-14.589v-0.266h0.332
			c0.521,0,1.03-0.211,1.529-0.632c0.498-0.421,0.747-1.107,0.747-2.06V88.573c0-0.753-0.169-1.406-0.506-1.961
			c-0.339-0.553-0.929-0.83-1.771-0.83H121.718z"/>
		<path fill="#231F20" d="M172.531,90.984h-0.282c-0.211-1.197-0.773-2.211-1.687-3.041c-0.914-0.831-1.964-1.438-3.148-1.82
			c-1.186-0.381-2.293-0.572-3.323-0.572c-1.407,0-2.729,0.296-3.964,0.889c-1.234,0.593-2.301,1.429-3.198,2.509
			c-0.898,1.08-1.595,2.376-2.094,3.889c-0.498,1.512-0.748,3.154-0.748,4.927c0,1.717,0.241,3.31,0.724,4.777
			c0.482,1.468,1.185,2.741,2.11,3.821c0.925,1.08,1.996,1.897,3.215,2.451c1.219,0.554,2.57,0.831,4.055,0.831
			c1.24,0,2.603-0.252,4.087-0.756c1.484-0.504,2.825-1.344,4.021-2.518v0.947c-1.474,1.141-2.822,1.977-4.046,2.509
			c-1.225,0.532-2.75,0.798-4.578,0.798c-1.928,0-3.686-0.352-5.275-1.056c-1.59-0.703-2.933-1.653-4.029-2.85
			c-1.097-1.196-1.928-2.542-2.493-4.038c-0.564-1.495-0.847-3.035-0.847-4.619c0-2.381,0.587-4.594,1.761-6.639
			c1.175-2.043,2.764-3.66,4.77-4.852c2.005-1.19,4.182-1.786,6.53-1.786c1.451,0,2.996,0.216,4.636,0.648l1.728,0.482
			c0.333,0.066,0.615,0.1,0.848,0.1c0.433,0,0.72-0.063,0.864-0.191c0.143-0.127,0.255-0.357,0.332-0.689h0.267L172.531,90.984z"/>
		<path fill="#231F20" d="M174.957,109.71h0.332c0.599,0,1.128-0.235,1.587-0.707c0.46-0.471,0.691-1.132,0.691-1.984V88.54
			c0-1.019-0.258-1.728-0.773-2.127c-0.515-0.398-1.127-0.609-1.836-0.631v-0.283h7.826v0.283c-0.687,0.021-1.296,0.227-1.827,0.615
			c-0.532,0.387-0.798,1.102-0.798,2.143v17.863c0,1.062,0.266,1.8,0.798,2.21c0.531,0.409,1.401,0.614,2.608,0.614h2.11
			c0.919,0,1.653-0.11,2.201-0.332c0.549-0.222,0.983-0.559,1.305-1.014c0.321-0.454,0.648-1.097,0.98-1.928h0.282l-0.931,4.021
			h-14.556V109.71z"/>
		<path fill="#231F20" d="M215.251,109.976h-5.134v-4.055l-0.084-0.066c-0.709,1.65-1.77,2.858-3.182,3.623
			c-1.412,0.764-2.889,1.146-4.428,1.146c-1.74,0-3.305-0.416-4.694-1.246c-1.391-0.832-2.412-1.855-3.066-3.074
			c-0.465-0.864-0.759-1.764-0.88-2.701c-0.122-0.936-0.184-1.907-0.184-2.916v-12.18c0-0.73-0.146-1.346-0.439-1.844
			c-0.294-0.499-0.995-0.792-2.103-0.881v-0.283h7.693v0.283c-1.13,0.133-1.85,0.459-2.16,0.98
			c-0.311,0.521-0.465,1.102-0.465,1.744v11.98c0,2.438,0.249,4.237,0.747,5.4c0.532,1.241,1.33,2.211,2.394,2.908
			c1.063,0.697,2.271,1.047,3.622,1.047c0.564,0,1.235-0.1,2.011-0.299c0.775-0.199,1.501-0.532,2.177-0.998
			c2.027-1.384,3.041-3.605,3.041-6.662V88.507c0-0.676-0.155-1.273-0.466-1.795c-0.311-0.52-1.041-0.83-2.193-0.93v-0.283h7.826
			v0.283c-1.13,0.055-1.855,0.371-2.177,0.947c-0.321,0.576-0.481,1.157-0.481,1.744v18.545c0,0.643,0.107,1.148,0.324,1.52
			c0.216,0.371,0.515,0.635,0.896,0.789c0.383,0.156,0.851,0.283,1.404,0.383V109.976z"/>
		<path fill="#231F20" d="M226.784,109.976h-9.155v-0.266h0.332c0.621,0,1.155-0.225,1.603-0.674
			c0.449-0.448,0.673-1.121,0.673-2.018V88.54c0-0.875-0.207-1.553-0.623-2.035c-0.415-0.482-0.977-0.723-1.686-0.723h-0.299v-0.283
			h7.992c1.053,0,2.021,0.152,2.908,0.457c0.886,0.305,1.637,0.727,2.252,1.264c0.614,0.537,1.088,1.146,1.42,1.828
			c0.333,0.681,0.499,1.42,0.499,2.218c0,1.474-0.477,2.669-1.429,3.589c-0.953,0.92-2.232,1.596-3.839,2.027v0.066
			c0.731,0.078,1.435,0.193,2.11,0.35c0.676,0.154,1.285,0.371,1.828,0.647c0.542,0.276,1.052,0.638,1.528,1.08
			c0.432,0.399,0.798,0.837,1.097,1.312c0.299,0.477,0.526,0.995,0.682,1.554c0.154,0.559,0.232,1.133,0.232,1.72
			c0,1.274-0.33,2.371-0.988,3.29c-0.659,0.92-1.404,1.617-2.235,2.094C230.5,109.65,228.867,109.976,226.784,109.976z
			 M222.763,96.733h1.595c1.308,0,2.237-0.134,2.792-0.399c0.354-0.177,0.723-0.42,1.104-0.73c0.383-0.311,0.748-0.798,1.097-1.463
			c0.35-0.664,0.523-1.467,0.523-2.408c0-0.732-0.116-1.427-0.349-2.086c-0.232-0.659-0.57-1.244-1.014-1.753
			c-0.443-0.51-0.97-0.908-1.578-1.196c-0.609-0.288-1.274-0.432-1.994-0.432c-0.632,0-1.357,0.121-2.177,0.365V96.733z
			 M225.272,97.48h-2.509v8.824c0,0.587,0.058,1.077,0.174,1.471c0.117,0.393,0.436,0.733,0.956,1.021
			c0.521,0.288,1.323,0.432,2.409,0.432c2.249,0,3.85-0.748,4.802-2.242c0.654-1.031,0.98-2.188,0.98-3.474
			c0-0.931-0.163-1.772-0.49-2.525c-0.326-0.753-0.775-1.382-1.346-1.886c-0.57-0.504-1.288-0.9-2.151-1.188
			C227.233,97.624,226.292,97.48,225.272,97.48z"/>
		<path fill="#C41230" d="M74.709,129.814h-0.394l-3.421-9.275l-3.332,9.275H67.21l-3.837-10.371
			c-0.724-1.93-1.074-1.996-2.127-1.996v-0.373h4.648v0.373c-1.03,0.109-1.315,0.504-0.942,1.514l2.938,7.98l2.676-7.301
			l-0.285-0.812c-0.373-1.074-0.855-1.381-1.755-1.381v-0.373h4.605v0.373c-1.141,0-1.47,0.395-1.053,1.535l2.938,7.959l2.565-7.038
			c0.548-1.491,0.438-2.478-0.943-2.478v-0.352h3.815v0.373c-0.986,0.066-1.535,0.701-2.215,2.543L74.709,129.814z"/>
		<path fill="#C41230" d="M86.05,128.191c0,0.768,0.197,1.074,1.293,1.074v0.373h-4.254v-0.373c1.185,0,1.47-0.153,1.47-1.074
			v-4.758c0-1.074-0.329-1.162-1.47-1.162v-0.373l2.588-0.241h0.373V128.191z M86.269,118.587c0,0.525-0.417,0.965-0.942,0.965
			c-0.526,0-0.965-0.439-0.965-0.965c0-0.526,0.438-0.943,0.965-0.943C85.852,117.644,86.269,118.061,86.269,118.587z"/>
		<path fill="#C41230" d="M98.439,127.949c0,1.009,0.22,1.315,1.316,1.315v0.373h-4.145v-0.373c1.053,0,1.338-0.24,1.338-0.965
			v-4.057c0-1.25-0.899-1.775-1.732-1.775c-0.768,0-1.447,0.482-2.215,1.513v3.794c0,1.184,0.153,1.49,1.315,1.49v0.373h-4.1v-0.373
			c1.03,0,1.293-0.088,1.293-1.49v-4.363c0-0.943-0.241-1.141-1.293-1.141v-0.373l2.411-0.241h0.373v1.557
			c0.921-1.052,1.82-1.557,2.807-1.557c1.294,0,2.631,0.921,2.631,2.784V127.949z"/>
		<path fill="#C41230" d="M110.633,128.124c0,0.855,0.307,1.141,1.293,1.141v0.373h-4.517c-3.289,0-4.517-2.215-4.517-4.035
			c0-2.191,1.622-3.946,3.64-3.946c0.833,0,1.622,0.285,2.609,0.942v-4.758c0-1.118-0.264-1.338-1.031-1.338h-0.438v-0.372
			l2.588-0.263h0.373V128.124z M109.142,123.433c-0.614-0.834-1.47-1.316-2.259-1.316c-1.403,0-2.368,1.272-2.368,3.158
			c0,1.863,0.855,4.013,3.398,4.013c0.877,0,1.229-0.351,1.229-1.185V123.433z"/>
		<path fill="#C41230" d="M116.818,124.902c-0.043,3.486,2.04,4.363,3.092,4.363c1.075,0,1.623-0.373,2.741-1.622v0.569
			c-0.942,1.207-1.842,1.667-3.201,1.667c-2.434,0-4.188-1.689-4.188-4.034c0-2.347,1.711-4.188,3.903-4.188
			c1.798,0,3.465,1.447,3.354,3.245H116.818z M121.05,124.529c0.065-1.71-1.097-2.412-2.083-2.412c-1.294,0-2.062,0.965-2.149,2.412
			H121.05z"/>
		<path fill="#C41230" d="M128.814,128.169c0,0.855,0.263,1.096,1.294,1.096v0.373h-4.101v-0.373c1.184,0,1.315-0.307,1.315-1.49
			v-4.232c0-1.141-0.285-1.271-1.601-1.271v-0.373l2.719-0.241h0.373v1.688c1.447-1.25,2.127-1.688,2.653-1.688
			c0.438,0,1.03,0.263,1.425,0.614l-0.592,1.381c-0.636-0.351-1.315-0.68-1.842-0.68c-0.504,0-0.942,0.264-1.645,0.943V128.169z"/>
		<path fill="#C41230" d="M149.931,128.191c0,0.789,0.263,1.074,1.315,1.074v0.373h-4.122v-0.373c1.096,0,1.315-0.219,1.315-1.49
			v-3.684c0-1.01-0.658-1.602-1.688-1.602c-0.833,0-1.513,0.461-2.192,1.491v4.166c0,0.812,0.241,1.118,1.293,1.118v0.373h-4.078
			v-0.373c1.053,0,1.294-0.109,1.294-1.49v-3.597c0-1.162-0.811-1.688-1.645-1.688c-0.877,0-1.732,0.614-2.236,1.491v4.231
			c0,0.79,0.328,1.075,1.315,1.075v0.351h-4.122v-0.373c0.921,0,1.316-0.088,1.316-1.25v-4.604c0-0.855-0.373-1.141-1.074-1.141
			h-0.482v-0.373l2.675-0.241h0.373v1.622h0.044c0.636-0.986,1.732-1.622,2.763-1.622c1.03,0,2.039,0.57,2.434,1.755
			c0.833-1.162,1.82-1.755,2.872-1.755c1.097,0,2.632,0.636,2.632,2.632V128.191z"/>
		<path fill="#C41230" d="M156.27,124.902c-0.043,3.486,2.04,4.363,3.092,4.363c1.075,0,1.623-0.373,2.741-1.622v0.569
			c-0.942,1.207-1.842,1.667-3.201,1.667c-2.434,0-4.188-1.689-4.188-4.034c0-2.347,1.711-4.188,3.903-4.188
			c1.798,0,3.465,1.447,3.354,3.245H156.27z M160.502,124.529c0.065-1.71-1.097-2.412-2.083-2.412c-1.294,0-2.062,0.965-2.149,2.412
			H160.502z"/>
		<path fill="#C41230" d="M168.267,128.169c0,0.855,0.263,1.096,1.294,1.096v0.373h-4.101v-0.373c1.185,0,1.315-0.307,1.315-1.49
			v-4.232c0-1.141-0.285-1.271-1.601-1.271v-0.373l2.719-0.241h0.373v1.688c1.447-1.25,2.127-1.688,2.653-1.688
			c0.438,0,1.03,0.263,1.425,0.614l-0.592,1.381c-0.636-0.351-1.316-0.68-1.842-0.68c-0.504,0-0.942,0.264-1.645,0.943V128.169z"/>
		<path fill="#C41230" d="M176.885,124.902c-0.043,3.486,2.04,4.363,3.092,4.363c1.075,0,1.623-0.373,2.741-1.622v0.569
			c-0.942,1.207-1.842,1.667-3.201,1.667c-2.434,0-4.188-1.689-4.188-4.034c0-2.347,1.711-4.188,3.903-4.188
			c1.798,0,3.465,1.447,3.354,3.245H176.885z M181.118,124.529c0.065-1.71-1.097-2.412-2.083-2.412
			c-1.294,0-2.061,0.965-2.149,2.412H181.118z"/>
	</g>
	<g>
		<g>
			<path fill="#C41230" d="M122.1,42.714c-0.392,0.332-0.789,0.628-1.181,0.906c0.391-0.262,0.778-0.541,1.164-0.852
				C122.089,42.749,122.092,42.733,122.1,42.714z"/>
			<path fill="#FFFFFF" d="M121.059,43.827l-0.284-0.412c0.461-0.327,0.831-0.611,1.163-0.893l0.768-0.65l-0.396,1.006l-0.068,0.084
				C121.886,43.249,121.5,43.531,121.059,43.827z"/>
		</g>
		<g>
			<path fill="#C41230" d="M123.239,39.936c0.152-0.27,0.338-0.637,0.53-1.042c-0.192,0.381-0.374,0.723-0.535,0.981
				C123.234,39.895,123.239,39.916,123.239,39.936z"/>
			<path fill="#FFFFFF" d="M122.989,40.886l-0.005-1.083l0.038-0.061c0.139-0.222,0.305-0.527,0.523-0.961l0.449,0.22
				c-0.205,0.432-0.392,0.797-0.538,1.058L122.989,40.886z"/>
		</g>
		<g>
			<path fill="#C41230" d="M137.782,52.448c0,0.003,0.002,0.003,0.002,0.006c0.06-0.027,0.108-0.062,0.164-0.091
				C137.892,52.389,137.84,52.424,137.782,52.448z"/>
			<path fill="#FFFFFF" d="M137.534,52.841l-0.002-0.559l0.154-0.064c0.024-0.01,0.048-0.023,0.07-0.036l0.076-0.041v0l0.008-0.004
				l0.102,0.205l0.048-0.032l0.043,0.064l0.001,0.08h-0.036l0.065,0.131c-0.093,0.054-0.133,0.077-0.177,0.097L137.534,52.841z"/>
		</g>
		<g>
			<path fill="#C41230" d="M125.975,33.408l-0.083,0.378l0.249-0.958c0,0-0.003,0.005-0.003,0.007
				C126.093,33.015,126.032,33.211,125.975,33.408z"/>
			<path fill="#FFFFFF" d="M126.134,33.849l-0.486-0.117l0.142-0.579c0.038-0.13,0.076-0.258,0.106-0.378l0.031-0.076l0.893-1.487
				L126.134,33.849z"/>
		</g>
		<g>
			<path fill="#C41230" d="M109.147,25.615c-0.009,0.009-0.018,0.016-0.024,0.023c0.54,0.04,1.065,0.098,1.579,0.173
				C110.2,25.729,109.679,25.662,109.147,25.615z"/>
			<path fill="#FFFFFF" d="M110.666,26.059c-0.511-0.075-1.036-0.133-1.562-0.171l-0.499-0.037l0.412-0.465l0.152-0.02
				c0.523,0.046,1.053,0.114,1.573,0.199L110.666,26.059z"/>
		</g>
		<g>
			<path fill="#C41230" d="M108.425,26.395c-2.02,2.139-3.043,4.795-3.043,7.893c0,2.983,0.917,5.525,2.723,7.556
				c1.809,2.029,4.032,3.057,6.617,3.057c1.476,0,2.766-0.265,3.829-0.79c1.074-0.53,2.317-1.532,3.686-2.945v-1.23
				c0-3.975-1.3-7.259-3.858-9.76C115.821,27.676,112.456,26.408,108.425,26.395z"/>
			<path fill="#FFFFFF" d="M114.722,45.151c-2.657,0-4.946-1.057-6.804-3.14c-1.849-2.08-2.786-4.678-2.786-7.723
				c0-3.166,1.047-5.879,3.111-8.065l0.074-0.079l0.108,0c4.118,0.014,7.525,1.31,10.128,3.852c2.61,2.551,3.933,5.896,3.933,9.939
				v1.332l-0.07,0.073c-1.408,1.453-2.672,2.461-3.756,2.995C117.566,44.877,116.241,45.151,114.722,45.151z M108.533,26.645
				c-1.925,2.077-2.9,4.647-2.9,7.643c0,2.919,0.895,5.405,2.659,7.39c1.759,1.972,3.922,2.973,6.431,2.973
				c1.441,0,2.692-0.257,3.719-0.764c1.015-0.5,2.207-1.45,3.547-2.822v-1.129c0-3.904-1.272-7.128-3.783-9.581
				C115.721,27.928,112.468,26.681,108.533,26.645z"/>
		</g>
		<g>
			<path fill="#C41230" d="M133.792,28.607c0.004-0.005,0.007-0.008,0.009-0.009c-0.057-0.021-0.104-0.034-0.158-0.049
				C133.712,28.572,133.761,28.591,133.792,28.607z"/>
			<path fill="#FFFFFF" d="M133.822,28.96l-0.146-0.132c-0.023-0.013-0.062-0.025-0.114-0.043l0.092-0.289l-0.056-0.045l0.055-0.053
				l0.023,0.03l0.037-0.12c0.064,0.018,0.115,0.033,0.175,0.055l0.436,0.157l-0.371,0.278L133.822,28.96z"/>
		</g>
		<g>
			<path fill="#C41230" d="M149.095,24.106c-2.743,3.679-5.98,5.357-10.33,5.357c-0.816,0-2.137-0.201-3.887-0.604
				c-1.505,1.325-2.697,2.989-3.541,4.949c-0.841,1.951-1.669,5.091-2.458,9.326c-0.656,3.497-1.489,6.555-2.479,9.218
				c0.446-0.625,0.92-1.248,1.458-1.859c3.419-3.886,7.028-5.857,10.736-5.857c1.781,0,3.21,0.442,4.251,1.31
				c1.034,0.869,1.562,2.002,1.562,3.37c0,1.18-0.445,2.198-1.315,3.016c-0.872,0.824-1.961,1.241-3.233,1.241
				c-0.81,0-1.465-0.307-1.956-0.926c-0.052-0.06-0.111-0.105-0.157-0.173c0.005,0,0.006-0.001,0.011-0.001
				c-0.01-0.014-0.021-0.022-0.028-0.034c1.809-0.828,2.755-2.729,2.755-4.178c0-1.763-1.002-2.991-2.433-2.991
				c-1.674,0-4.25,1.546-5.867,3.522c-1.288,1.584-2.635,4.085-3.603,6.688c-0.867,2.308-1.304,4.421-1.304,6.28
				c0,4.158,2.57,7.065,6.254,7.065c6.328,0,15.768-8.069,20.198-17.266l-0.023,0.051c0.296-0.608,0.433-0.864,0.504-0.978
				c0.573-2.432,0.885-4.964,0.885-7.57C155.095,36.002,152.869,29.467,149.095,24.106z"/>
			<path fill="#FFFFFF" d="M133.532,69.072c-3.829,0-6.504-3.008-6.504-7.315c0-1.895,0.444-4.038,1.319-6.368
				c0.978-2.628,2.339-5.155,3.643-6.758c1.659-2.027,4.321-3.614,6.062-3.614c1.579,0,2.683,1.333,2.683,3.241
				c0,1.45-0.895,3.326-2.611,4.26c0.446,0.542,1.013,0.802,1.737,0.802c1.208,0,2.238-0.395,3.061-1.173
				c0.821-0.772,1.237-1.725,1.237-2.834c0-1.288-0.496-2.357-1.474-3.178c-0.995-0.83-2.371-1.251-4.09-1.251
				c-3.63,0-7.179,1.942-10.549,5.772c-0.469,0.533-0.927,1.118-1.442,1.839l-1.093,1.533l0.655-1.765
				c0.999-2.688,1.829-5.776,2.467-9.177c0.793-4.252,1.625-7.407,2.475-9.379c0.856-1.99,2.069-3.686,3.605-5.038l0.096-0.085
				l0.126,0.029c1.695,0.391,3.02,0.598,3.83,0.598c4.295,0,7.419-1.621,10.13-5.256l0.206-0.277l0.198,0.282
				c3.955,5.62,6.046,12.224,6.046,19.098c0,2.552-0.3,5.119-0.892,7.627l-0.031,0.076c-0.08,0.126-0.24,0.438-0.491,0.954l-0.001,0
				C149.453,60.968,139.932,69.072,133.532,69.072z M138.051,45.517c-1.607,0-4.1,1.507-5.674,3.43
				c-1.27,1.562-2.602,4.037-3.561,6.617c-0.855,2.275-1.288,4.358-1.288,6.193c0,4.013,2.469,6.815,6.004,6.815
				c6.245,0,15.578-8.002,19.973-17.124l0.002,0c0.286-0.588,0.407-0.81,0.47-0.915c0.577-2.459,0.869-4.974,0.869-7.474
				c0-6.657-1.99-13.055-5.759-18.529c-2.735,3.533-6.023,5.182-10.321,5.182c-0.827,0-2.144-0.201-3.817-0.582
				c-1.434,1.289-2.571,2.895-3.381,4.775c-0.835,1.938-1.656,5.057-2.441,9.273c-0.527,2.809-1.185,5.407-1.96,7.746
				c0.169-0.208,0.337-0.407,0.506-0.599c3.469-3.943,7.144-5.942,10.924-5.942c1.839,0,3.323,0.461,4.411,1.368
				c1.097,0.921,1.652,2.119,1.652,3.561c0,1.253-0.469,2.328-1.395,3.198c-0.919,0.869-2.064,1.309-3.404,1.309
				c-0.891,0-1.614-0.343-2.151-1.021l-0.043-0.042c-0.045-0.045-0.088-0.09-0.126-0.146l-0.264-0.39l0.349-0.013
				c1.713-0.784,2.609-2.581,2.609-3.95C140.234,46.644,139.336,45.517,138.051,45.517z"/>
		</g>
		<g>
			<path fill="#C41230" d="M94.472,31.786c3.514-3.619,8.057-5.698,13.479-6.171c2.849-2.999,6.781-4.521,11.688-4.521
				c1.998,0,4.886,0.629,8.577,1.867c7.095,2.383,11.972,3.59,14.513,3.59c1.598,0,2.929-0.29,3.962-0.86
				c0.724-0.398,1.466-1.028,2.213-1.853c-5.983-8.323-15.745-13.749-26.777-13.749c-18.208,0-32.966,14.761-32.966,32.97
				c0,0.535,0.013,1.068,0.038,1.599C89.306,39.627,91.068,35.292,94.472,31.786z"/>
			<path fill="#FFFFFF" d="M88.949,44.67c-0.026-0.534-0.039-1.072-0.039-1.61c0-18.318,14.9-33.22,33.216-33.22
				c10.658,0,20.744,5.179,26.981,13.853l0.118,0.164l-0.136,0.15c-0.781,0.862-1.548,1.503-2.278,1.904
				c-1.07,0.591-2.444,0.891-4.082,0.891c-2.564,0-7.474-1.212-14.593-3.604c-3.669-1.23-6.528-1.854-8.497-1.854
				c-4.835,0-8.707,1.495-11.507,4.443l-0.066,0.068l-0.095,0.008c-5.366,0.468-9.848,2.519-13.321,6.096
				c-3.346,3.445-5.096,7.719-5.203,12.703L88.949,44.67z M122.126,10.34c-17.031,0-31.064,13.083-32.58,29.728
				c0.798-3.193,2.385-6.024,4.747-8.456c3.538-3.644,8.094-5.743,13.541-6.237c2.894-3.006,6.864-4.53,11.805-4.53
				c2.023,0,4.936,0.632,8.656,1.88c7.068,2.374,11.924,3.577,14.434,3.577c1.553,0,2.845-0.279,3.841-0.829
				c0.64-0.352,1.316-0.907,2.012-1.653C142.43,15.375,132.556,10.34,122.126,10.34z"/>
		</g>
		<g>
			<path fill="#C41230" d="M154.026,51.4c-1.078,2.669-1.672,4.137-2.754,5.703c-6.157,8.901-12.086,12.869-19.223,12.869
				c-2.536,0-4.645-0.83-6.265-2.473c-1.62-1.645-2.441-3.784-2.441-6.359c0-1.102,0.155-2.193,0.426-3.276
				c-0.613,0.988-1.263,1.89-1.956,2.659c-3.183,3.532-7.694,5.321-13.419,5.321c-5.269,0-9.836-2.033-13.579-6.042
				c-1.544-1.657-2.757-3.479-3.667-5.441c4.612,12.642,16.743,21.667,30.979,21.667c15.326,0,28.211-10.46,31.901-24.63
				L154.026,51.4z"/>
			<path fill="#FFFFFF" d="M122.126,76.277c-13.905,0-26.449-8.773-31.213-21.831l0.461-0.191c0.912,1.966,2.131,3.775,3.624,5.376
				c3.693,3.956,8.201,5.962,13.396,5.962c5.648,0,10.101-1.762,13.233-5.238c0.649-0.72,1.28-1.578,1.93-2.623l0.841-1.355
				l-0.387,1.547c-0.281,1.127-0.418,2.179-0.418,3.216c0,2.507,0.797,4.587,2.369,6.184c1.57,1.591,3.618,2.398,6.087,2.398
				c7.047,0,12.912-3.936,19.017-12.761c1.068-1.546,1.658-3.006,2.729-5.655l0.476,0.153
				C150.464,66.071,137.247,76.277,122.126,76.277z M93.037,58.046c5.553,10.751,16.779,17.731,29.09,17.731
				c13.05,0,24.661-7.719,29.856-19.312c-0.157,0.261-0.324,0.52-0.505,0.781c-6.209,8.975-12.2,12.976-19.429,12.976
				c-2.608,0-4.775-0.857-6.442-2.547c-1.668-1.694-2.514-3.892-2.514-6.535c0-0.672,0.056-1.351,0.168-2.049
				c-0.419,0.598-0.837,1.126-1.263,1.599c-3.23,3.585-7.809,5.403-13.604,5.403c-5.34,0-9.97-2.06-13.762-6.122
				C94.061,59.359,93.528,58.716,93.037,58.046z"/>
		</g>
		<g>
			<path fill="#C41230" d="M100.29,38.894c-0.028,0.083-0.243,5.881-0.273,5.964c0.033,2.59,0.936,4.825,2.693,6.645
				c1.789,1.853,4.022,2.789,6.641,2.789c2.77,0,5.386-1.1,7.781-3.269c1.947-1.769,3.401-3.954,4.385-6.484
				c0.21-0.567,0.4-1.146,0.562-1.753c-2.383,2.008-4.855,3.024-7.356,3.024c-2.823,0-5.249-1.106-7.2-3.292
				c-2.031-2.265-3.06-4.978-3.06-8.067c0-2.573,0.684-4.934,2.041-7.001c0.222-0.354,0.458-0.697,0.715-1.033
				c-4.83,0.761-8.88,3.011-12.035,6.693c-3.165,3.69-4.767,8.056-4.767,12.973c0,5.035,1.709,9.461,5.084,13.153
				c3.314,3.624,7.262,5.388,12.062,5.388c4.024,0,7.2-1.414,9.709-4.317c2.576-2.984,5.001-8.096,7.204-15.194
				c1.29-4.119,2.155-6.709,2.645-7.924c0.572-1.425,1.338-2.782,2.277-4.039c0.8-1.075,2.023-2.371,3.6-3.8
				c0.254-0.239,0.495-0.47,0.772-0.719l-4.397-1.405l-4.56-2.098c-3.467-1.599-6.264-2.41-8.313-2.41
				c-2.437,0-4.556,0.703-6.344,2.026c-0.343,0.262-0.674,0.542-0.99,0.855c4.192,0.309,7.573,1.728,10.049,4.219
				c2.02,2.033,3.287,4.67,3.769,7.833c0.118,0.71,0.206,1.439,0.249,2.206c0.616-1.105,1.68-3.524,2.409-5.536
				c0.184-0.542,0.348-1.062,0.461-1.513l-0.088,0.419c0.04-0.131,0.088-0.269,0.125-0.392c0.003-0.007,0.005-0.012,0.005-0.017
				l-0.002,0.01c0.002-0.003,0.002-0.007,0.003-0.01l-0.421,1.974l-0.061,0.233c-0.681,2.545-1.264,4.739-2.382,6.549
				c-0.391,4.027-1.841,7.322-4.311,9.792c-2.471,2.47-5.533,3.72-9.107,3.72c-3.326,0-5.759-0.863-7.669-2.715
				c-1.979-1.919-3.025-4.566-3.025-7.658c0-0.193,0.012-0.387,0.021-0.579L100.29,38.894z"/>
			<path fill="#FFFFFF" d="M107.562,64.874c-4.875,0-8.881-1.789-12.247-5.469c-3.417-3.738-5.149-8.22-5.149-13.322
				c0-4.981,1.624-9.401,4.827-13.135c3.192-3.726,7.293-6.006,12.186-6.778l0.617-0.097l-0.38,0.496
				c-0.245,0.321-0.475,0.653-0.701,1.014c-1.33,2.025-2.003,4.335-2.003,6.868c0,3.025,1.008,5.683,2.997,7.9
				c1.9,2.129,4.26,3.209,7.014,3.209c2.439,0,4.86-0.998,7.195-2.966l0.608-0.512l-0.205,0.768
				c-0.152,0.573-0.339,1.154-0.569,1.776c-1.013,2.605-2.51,4.818-4.451,6.582c-2.443,2.212-5.118,3.334-7.949,3.334
				c-2.69,0-4.984-0.964-6.82-2.865c-1.8-1.863-2.729-4.156-2.764-6.815l0-0.046l0.016-0.043c0.005-0.084,0.066-1.551,0.119-2.808
				l-0.466,2.224l0.001,0.04c-0.008,0.162-0.017,0.325-0.017,0.487c0,3.022,1.02,5.608,2.949,7.478
				c1.86,1.805,4.242,2.645,7.495,2.645c3.505,0,6.51-1.227,8.931-3.647c2.428-2.428,3.854-5.671,4.239-9.64l0.036-0.107
				c0.806-1.304,1.332-2.823,1.821-4.536c-0.519,1.229-1.053,2.377-1.439,3.071l-0.42,0.754l-0.049-0.861
				c-0.039-0.711-0.12-1.424-0.246-2.179c-0.474-3.116-1.719-5.705-3.699-7.698c-2.43-2.446-5.757-3.841-9.89-4.146l-0.548-0.041
				l0.391-0.387c0.3-0.297,0.632-0.583,1.014-0.876c1.864-1.379,4.049-2.078,6.496-2.078c2.087,0,4.919,0.818,8.418,2.433
				l4.56,2.098l4.785,1.527l-0.325,0.291c-0.226,0.202-0.427,0.392-0.63,0.584l-0.138,0.13c-1.543,1.397-2.776,2.699-3.571,3.767
				c-0.927,1.241-1.683,2.581-2.245,3.983c-0.49,1.218-1.354,3.804-2.639,7.906c-2.212,7.128-4.652,12.27-7.253,15.283
				C114.9,63.434,111.662,64.874,107.562,64.874z M106.653,26.767c-4.507,0.84-8.3,3.026-11.281,6.505
				c-3.123,3.642-4.707,7.951-4.707,12.81c0,4.973,1.688,9.342,5.019,12.985c3.266,3.571,7.151,5.307,11.878,5.307
				c3.946,0,7.06-1.384,9.52-4.231c2.556-2.96,4.963-8.042,7.155-15.104c1.288-4.115,2.156-6.713,2.651-7.943
				c0.579-1.442,1.355-2.82,2.309-4.095c0.814-1.093,2.069-2.42,3.632-3.835l0.134-0.127c0.106-0.1,0.211-0.2,0.319-0.3
				l-3.986-1.274l-4.588-2.109c-3.434-1.583-6.195-2.387-8.209-2.387c-2.338,0-4.422,0.665-6.195,1.978
				c-0.198,0.151-0.383,0.302-0.556,0.453c3.996,0.396,7.238,1.823,9.644,4.244c2.057,2.07,3.348,4.752,3.838,7.972
				c0.077,0.462,0.138,0.911,0.183,1.353c0.623-1.268,1.423-3.157,1.993-4.73c0.21-0.62,0.355-1.094,0.454-1.488l0.042,0.01
				l0.487-1.61l0.005,1.714l-0.008,0.023l-0.481,2.204c-0.686,2.567-1.27,4.748-2.381,6.568c-0.404,4.061-1.877,7.388-4.378,9.888
				c-2.519,2.517-5.642,3.793-9.284,3.793c-3.391,0-5.883-0.885-7.843-2.786c-2.029-1.967-3.102-4.677-3.102-7.837
				c0-0.171,0.009-0.343,0.018-0.513l0.004-0.078l1.104-5.277l0.49,0.098c-0.014,0.113-0.074,1.571-0.127,2.856
				c-0.097,2.349-0.123,2.905-0.141,3.066c0.035,2.522,0.918,4.696,2.623,6.462c1.738,1.8,3.912,2.713,6.461,2.713
				c2.703,0,5.265-1.078,7.613-3.205c1.884-1.71,3.337-3.86,4.319-6.389c0.124-0.333,0.234-0.655,0.334-0.971
				c-2.236,1.714-4.553,2.582-6.895,2.582c-2.902,0-5.388-1.136-7.387-3.375c-2.073-2.311-3.124-5.081-3.124-8.233
				c0-2.632,0.7-5.034,2.082-7.138C106.412,27.125,106.531,26.944,106.653,26.767z"/>
		</g>
		<g>
			<path fill="#C41230" d="M107.228,26.403c0.008-0.012,0.02-0.024,0.027-0.038c-0.964,0.149-1.884,0.375-2.777,0.64
				C105.369,26.749,106.277,26.54,107.228,26.403z"/>
			<path fill="#FFFFFF" d="M104.547,27.245l-0.141-0.48c1.003-0.298,1.922-0.51,2.811-0.648l0.513-0.08l-0.356,0.6l-0.109,0.012
				C106.393,26.776,105.504,26.97,104.547,27.245z"/>
		</g>
	</g>
	<path fill="#C41230" d="M122.126,78.995c-19.816,0-35.938-16.122-35.938-35.936c0-19.818,16.122-35.939,35.938-35.939
		c19.817,0,35.938,16.121,35.938,35.939C158.065,62.874,141.944,78.995,122.126,78.995z M122.126,8.257
		c-19.188,0-34.799,15.612-34.799,34.803c0,19.187,15.611,34.799,34.799,34.799c19.191,0,34.805-15.612,34.805-34.799
		C156.931,23.869,141.318,8.257,122.126,8.257z"/>
	<path fill="none" stroke="#C41230" stroke-width="0.5" stroke-miterlimit="10" d="M187.484,124.425"/>
	<rect x="7.575" y="124.396" fill="#C41230" width="48.94" height="0.75"/>
	<rect x="187.484" y="124.396" fill="#C41230" width="48.941" height="0.75"/>
</g>
</svg>
